<svg xmlns="http://www.w3.org/2000/svg" viewBox="0 0 600 600" role="img" aria-label="Karela Jamun product">
  <defs>
    <linearGradient id="bg" x1="0" y1="0" x2="1" y2="1">
      <stop offset="0" stop-color="#889975"/>
      <stop offset="1" stop-color="#20310d"/>
    </linearGradient>
    <linearGradient id="body" x1="0" y1="0" x2="0" y2="1">
      <stop offset="0" stop-color="#8c9d79"/>
      <stop offset="1" stop-color="#4b5c38"/>
    </linearGradient>
    <radialGradient id="glow" cx="0.5" cy="0.42" r="0.6">
      <stop offset="0" stop-color="#ffffff" stop-opacity="0.20"/>
      <stop offset="1" stop-color="#ffffff" stop-opacity="0"/>
    </radialGradient>
  </defs>
  <rect width="600" height="600" fill="url(#bg)"/>
  <rect width="600" height="600" fill="url(#glow)"/>
  <g transform="translate(497.4246027401763 506.24799751967566) rotate(140.11018759576146) scale(0.9303173544492188)" opacity="0.1188377714337957">
    <path d="M0 0 C 18 -30 18 -70 0 -96 C -18 -70 -18 -30 0 0 Z" fill="#ffffff"/>
    <path d="M0 -6 L0 -90" stroke="#e6e6e6" stroke-width="2.5" fill="none"/>
    <path d="M0 -28 C 7 -34 12 -40 14 -48 M0 -44 C 7 -50 12 -56 14 -64 M0 -60 C 7 -66 12 -72 14 -80" stroke="#e6e6e6" stroke-width="1.6" fill="none"/>
    <path d="M0 -28 C -7 -34 -12 -40 -14 -48 M0 -44 C -7 -50 -12 -56 -14 -64 M0 -60 C -7 -66 -12 -72 -14 -80" stroke="#e6e6e6" stroke-width="1.6" fill="none"/>
  </g><g transform="translate(249.10383236087105 70.14341357636424) rotate(172.6899290888989) scale(0.6727257521230382)" opacity="0.13421728732726412">
    <path d="M0 0 C 18 -30 18 -70 0 -96 C -18 -70 -18 -30 0 0 Z" fill="#ffffff"/>
    <path d="M0 -6 L0 -90" stroke="#e6e6e6" stroke-width="2.5" fill="none"/>
    <path d="M0 -28 C 7 -34 12 -40 14 -48 M0 -44 C 7 -50 12 -56 14 -64 M0 -60 C 7 -66 12 -72 14 -80" stroke="#e6e6e6" stroke-width="1.6" fill="none"/>
    <path d="M0 -28 C -7 -34 -12 -40 -14 -48 M0 -44 C -7 -50 -12 -56 -14 -64 M0 -60 C -7 -66 -12 -72 -14 -80" stroke="#e6e6e6" stroke-width="1.6" fill="none"/>
  </g><g transform="translate(259.896969916251 98.3410120468312) rotate(285.7865811725085) scale(1.2278145942966523)" opacity="0.10205769778325116">
    <path d="M0 0 C 18 -30 18 -70 0 -96 C -18 -70 -18 -30 0 0 Z" fill="#ffffff"/>
    <path d="M0 -6 L0 -90" stroke="#e6e6e6" stroke-width="2.5" fill="none"/>
    <path d="M0 -28 C 7 -34 12 -40 14 -48 M0 -44 C 7 -50 12 -56 14 -64 M0 -60 C 7 -66 12 -72 14 -80" stroke="#e6e6e6" stroke-width="1.6" fill="none"/>
    <path d="M0 -28 C -7 -34 -12 -40 -14 -48 M0 -44 C -7 -50 -12 -56 -14 -64 M0 -60 C -7 -66 -12 -72 -14 -80" stroke="#e6e6e6" stroke-width="1.6" fill="none"/>
  </g><g transform="translate(446.45218869971677 564.3417837863517) rotate(354.9259473546063) scale(1.1631118539549)" opacity="0.13629045727490002">
    <path d="M0 0 C 18 -30 18 -70 0 -96 C -18 -70 -18 -30 0 0 Z" fill="#ffffff"/>
    <path d="M0 -6 L0 -90" stroke="#e6e6e6" stroke-width="2.5" fill="none"/>
    <path d="M0 -28 C 7 -34 12 -40 14 -48 M0 -44 C 7 -50 12 -56 14 -64 M0 -60 C 7 -66 12 -72 14 -80" stroke="#e6e6e6" stroke-width="1.6" fill="none"/>
    <path d="M0 -28 C -7 -34 -12 -40 -14 -48 M0 -44 C -7 -50 -12 -56 -14 -64 M0 -60 C -7 -66 -12 -72 -14 -80" stroke="#e6e6e6" stroke-width="1.6" fill="none"/>
  </g><g transform="translate(188.12642106233463 332.90734306578867) rotate(26.72415734581843) scale(1.1117155793643163)" opacity="0.10083644361274152">
    <path d="M0 0 C 18 -30 18 -70 0 -96 C -18 -70 -18 -30 0 0 Z" fill="#ffffff"/>
    <path d="M0 -6 L0 -90" stroke="#e6e6e6" stroke-width="2.5" fill="none"/>
    <path d="M0 -28 C 7 -34 12 -40 14 -48 M0 -44 C 7 -50 12 -56 14 -64 M0 -60 C 7 -66 12 -72 14 -80" stroke="#e6e6e6" stroke-width="1.6" fill="none"/>
    <path d="M0 -28 C -7 -34 -12 -40 -14 -48 M0 -44 C -7 -50 -12 -56 -14 -64 M0 -60 C -7 -66 -12 -72 -14 -80" stroke="#e6e6e6" stroke-width="1.6" fill="none"/>
  </g><g transform="translate(64.59796431688497 586.4574375499308) rotate(149.57937247565917) scale(1.2679418091047285)" opacity="0.11647036077290325">
    <path d="M0 0 C 18 -30 18 -70 0 -96 C -18 -70 -18 -30 0 0 Z" fill="#ffffff"/>
    <path d="M0 -6 L0 -90" stroke="#e6e6e6" stroke-width="2.5" fill="none"/>
    <path d="M0 -28 C 7 -34 12 -40 14 -48 M0 -44 C 7 -50 12 -56 14 -64 M0 -60 C 7 -66 12 -72 14 -80" stroke="#e6e6e6" stroke-width="1.6" fill="none"/>
    <path d="M0 -28 C -7 -34 -12 -40 -14 -48 M0 -44 C -7 -50 -12 -56 -14 -64 M0 -60 C -7 -66 -12 -72 -14 -80" stroke="#e6e6e6" stroke-width="1.6" fill="none"/>
  </g><g transform="translate(469.78540442408314 219.06366358467548) rotate(299.39168943995224) scale(1.118012762404053)" opacity="0.11294825078591159">
    <path d="M0 0 C 18 -30 18 -70 0 -96 C -18 -70 -18 -30 0 0 Z" fill="#ffffff"/>
    <path d="M0 -6 L0 -90" stroke="#e6e6e6" stroke-width="2.5" fill="none"/>
    <path d="M0 -28 C 7 -34 12 -40 14 -48 M0 -44 C 7 -50 12 -56 14 -64 M0 -60 C 7 -66 12 -72 14 -80" stroke="#e6e6e6" stroke-width="1.6" fill="none"/>
    <path d="M0 -28 C -7 -34 -12 -40 -14 -48 M0 -44 C -7 -50 -12 -56 -14 -64 M0 -60 C -7 -66 -12 -72 -14 -80" stroke="#e6e6e6" stroke-width="1.6" fill="none"/>
  </g><g transform="translate(354.9096109135587 257.7584267862879) rotate(38.568019884902995) scale(0.9301534178341523)" opacity="0.11356829376591757">
    <path d="M0 0 C 18 -30 18 -70 0 -96 C -18 -70 -18 -30 0 0 Z" fill="#ffffff"/>
    <path d="M0 -6 L0 -90" stroke="#e6e6e6" stroke-width="2.5" fill="none"/>
    <path d="M0 -28 C 7 -34 12 -40 14 -48 M0 -44 C 7 -50 12 -56 14 -64 M0 -60 C 7 -66 12 -72 14 -80" stroke="#e6e6e6" stroke-width="1.6" fill="none"/>
    <path d="M0 -28 C -7 -34 -12 -40 -14 -48 M0 -44 C -7 -50 -12 -56 -14 -64 M0 -60 C -7 -66 -12 -72 -14 -80" stroke="#e6e6e6" stroke-width="1.6" fill="none"/>
  </g>
  <ellipse cx="300" cy="470" rx="150" ry="26" fill="#000000" opacity="0.18"/>
  <g transform="rotate(20 300 320)">
    
        <rect x="270" y="150" width="60" height="30" rx="6" fill="#2d3e1a"/>
        <rect x="285" y="176" width="30" height="26" fill="#41522e"/>
        <rect x="240" y="198" width="120" height="250" rx="26" fill="url(#body)"/>
        <rect x="240" y="198" width="40" height="250" rx="26" fill="#9bac88" opacity="0.35"/>
        <rect x="258" y="250" width="84" height="150" rx="10" fill="#faf6ec"/>
        <rect x="258" y="250" width="84" height="150" rx="10" fill="none" stroke="#82936f" stroke-width="2"/>
    <g transform="translate(300 340) rotate(-12) scale(0.55)" opacity="0.9">
    <path d="M0 0 C 18 -30 18 -70 0 -96 C -18 -70 -18 -30 0 0 Z" fill="#5a6b47"/>
    <path d="M0 -6 L0 -90" stroke="#41522e" stroke-width="2.5" fill="none"/>
    <path d="M0 -28 C 7 -34 12 -40 14 -48 M0 -44 C 7 -50 12 -56 14 -64 M0 -60 C 7 -66 12 -72 14 -80" stroke="#41522e" stroke-width="1.6" fill="none"/>
    <path d="M0 -28 C -7 -34 -12 -40 -14 -48 M0 -44 C -7 -50 -12 -56 -14 -64 M0 -60 C -7 -66 -12 -72 -14 -80" stroke="#41522e" stroke-width="1.6" fill="none"/>
  </g>
  </g>
  <text x="300" y="536" text-anchor="middle" font-family="Georgia, serif" font-size="34" fill="#faf6ec" font-weight="700">Karela Jamun</text>
  <text x="300" y="566" text-anchor="middle" font-family="Arial, sans-serif" font-size="17" letter-spacing="3" fill="#faf6ec" opacity="0.75">AYURVEDA</text>
</svg>
