<svg xmlns="http://www.w3.org/2000/svg" viewBox="0 0 600 600" role="img" aria-label="Tulsi Drops product">
  <defs>
    <linearGradient id="bg" x1="0" y1="0" x2="1" y2="1">
      <stop offset="0" stop-color="#5b9272"/>
      <stop offset="1" stop-color="#013818"/>
    </linearGradient>
    <linearGradient id="body" x1="0" y1="0" x2="0" y2="1">
      <stop offset="0" stop-color="#659c7c"/>
      <stop offset="1" stop-color="#245b3b"/>
    </linearGradient>
    <radialGradient id="glow" cx="0.5" cy="0.42" r="0.6">
      <stop offset="0" stop-color="#ffffff" stop-opacity="0.20"/>
      <stop offset="1" stop-color="#ffffff" stop-opacity="0"/>
    </radialGradient>
  </defs>
  <rect width="600" height="600" fill="url(#bg)"/>
  <rect width="600" height="600" fill="url(#glow)"/>
  <g transform="translate(121.4899063676083 527.852458007565) rotate(258.7132323992966) scale(0.476243722474316)" opacity="0.11556588412987343">
    <path d="M0 0 C 18 -30 18 -70 0 -96 C -18 -70 -18 -30 0 0 Z" fill="#ffffff"/>
    <path d="M0 -6 L0 -90" stroke="#e6e6e6" stroke-width="2.5" fill="none"/>
    <path d="M0 -28 C 7 -34 12 -40 14 -48 M0 -44 C 7 -50 12 -56 14 -64 M0 -60 C 7 -66 12 -72 14 -80" stroke="#e6e6e6" stroke-width="1.6" fill="none"/>
    <path d="M0 -28 C -7 -34 -12 -40 -14 -48 M0 -44 C -7 -50 -12 -56 -14 -64 M0 -60 C -7 -66 -12 -72 -14 -80" stroke="#e6e6e6" stroke-width="1.6" fill="none"/>
  </g><g transform="translate(350.9420873368821 308.0376149658289) rotate(266.4351941395715) scale(1.2849193338700196)" opacity="0.09568044901624342">
    <path d="M0 0 C 18 -30 18 -70 0 -96 C -18 -70 -18 -30 0 0 Z" fill="#ffffff"/>
    <path d="M0 -6 L0 -90" stroke="#e6e6e6" stroke-width="2.5" fill="none"/>
    <path d="M0 -28 C 7 -34 12 -40 14 -48 M0 -44 C 7 -50 12 -56 14 -64 M0 -60 C 7 -66 12 -72 14 -80" stroke="#e6e6e6" stroke-width="1.6" fill="none"/>
    <path d="M0 -28 C -7 -34 -12 -40 -14 -48 M0 -44 C -7 -50 -12 -56 -14 -64 M0 -60 C -7 -66 -12 -72 -14 -80" stroke="#e6e6e6" stroke-width="1.6" fill="none"/>
  </g><g transform="translate(169.82275851528289 282.3057891252943) rotate(11.304287915725395) scale(1.1596810940465336)" opacity="0.0961516150907388">
    <path d="M0 0 C 18 -30 18 -70 0 -96 C -18 -70 -18 -30 0 0 Z" fill="#ffffff"/>
    <path d="M0 -6 L0 -90" stroke="#e6e6e6" stroke-width="2.5" fill="none"/>
    <path d="M0 -28 C 7 -34 12 -40 14 -48 M0 -44 C 7 -50 12 -56 14 -64 M0 -60 C 7 -66 12 -72 14 -80" stroke="#e6e6e6" stroke-width="1.6" fill="none"/>
    <path d="M0 -28 C -7 -34 -12 -40 -14 -48 M0 -44 C -7 -50 -12 -56 -14 -64 M0 -60 C -7 -66 -12 -72 -14 -80" stroke="#e6e6e6" stroke-width="1.6" fill="none"/>
  </g><g transform="translate(306.02563633864077 503.2638075311034) rotate(136.63259497686875) scale(0.41306879521024825)" opacity="0.14429821732654152">
    <path d="M0 0 C 18 -30 18 -70 0 -96 C -18 -70 -18 -30 0 0 Z" fill="#ffffff"/>
    <path d="M0 -6 L0 -90" stroke="#e6e6e6" stroke-width="2.5" fill="none"/>
    <path d="M0 -28 C 7 -34 12 -40 14 -48 M0 -44 C 7 -50 12 -56 14 -64 M0 -60 C 7 -66 12 -72 14 -80" stroke="#e6e6e6" stroke-width="1.6" fill="none"/>
    <path d="M0 -28 C -7 -34 -12 -40 -14 -48 M0 -44 C -7 -50 -12 -56 -14 -64 M0 -60 C -7 -66 -12 -72 -14 -80" stroke="#e6e6e6" stroke-width="1.6" fill="none"/>
  </g><g transform="translate(369.61340921447305 434.66677685951197) rotate(303.4180928689512) scale(1.2041925672461244)" opacity="0.14490550759476867">
    <path d="M0 0 C 18 -30 18 -70 0 -96 C -18 -70 -18 -30 0 0 Z" fill="#ffffff"/>
    <path d="M0 -6 L0 -90" stroke="#e6e6e6" stroke-width="2.5" fill="none"/>
    <path d="M0 -28 C 7 -34 12 -40 14 -48 M0 -44 C 7 -50 12 -56 14 -64 M0 -60 C 7 -66 12 -72 14 -80" stroke="#e6e6e6" stroke-width="1.6" fill="none"/>
    <path d="M0 -28 C -7 -34 -12 -40 -14 -48 M0 -44 C -7 -50 -12 -56 -14 -64 M0 -60 C -7 -66 -12 -72 -14 -80" stroke="#e6e6e6" stroke-width="1.6" fill="none"/>
  </g><g transform="translate(102.32806210514534 471.7553796580785) rotate(308.11780586285414) scale(0.5815564752470499)" opacity="0.13197134974038757">
    <path d="M0 0 C 18 -30 18 -70 0 -96 C -18 -70 -18 -30 0 0 Z" fill="#ffffff"/>
    <path d="M0 -6 L0 -90" stroke="#e6e6e6" stroke-width="2.5" fill="none"/>
    <path d="M0 -28 C 7 -34 12 -40 14 -48 M0 -44 C 7 -50 12 -56 14 -64 M0 -60 C 7 -66 12 -72 14 -80" stroke="#e6e6e6" stroke-width="1.6" fill="none"/>
    <path d="M0 -28 C -7 -34 -12 -40 -14 -48 M0 -44 C -7 -50 -12 -56 -14 -64 M0 -60 C -7 -66 -12 -72 -14 -80" stroke="#e6e6e6" stroke-width="1.6" fill="none"/>
  </g><g transform="translate(300.3313065973722 426.6431810458392) rotate(343.33684102787487) scale(0.46021795275631266)" opacity="0.1476617873030071">
    <path d="M0 0 C 18 -30 18 -70 0 -96 C -18 -70 -18 -30 0 0 Z" fill="#ffffff"/>
    <path d="M0 -6 L0 -90" stroke="#e6e6e6" stroke-width="2.5" fill="none"/>
    <path d="M0 -28 C 7 -34 12 -40 14 -48 M0 -44 C 7 -50 12 -56 14 -64 M0 -60 C 7 -66 12 -72 14 -80" stroke="#e6e6e6" stroke-width="1.6" fill="none"/>
    <path d="M0 -28 C -7 -34 -12 -40 -14 -48 M0 -44 C -7 -50 -12 -56 -14 -64 M0 -60 C -7 -66 -12 -72 -14 -80" stroke="#e6e6e6" stroke-width="1.6" fill="none"/>
  </g><g transform="translate(154.69028956940878 313.8206721813515) rotate(113.64137654827972) scale(1.2805163268374822)" opacity="0.10827571393376018">
    <path d="M0 0 C 18 -30 18 -70 0 -96 C -18 -70 -18 -30 0 0 Z" fill="#ffffff"/>
    <path d="M0 -6 L0 -90" stroke="#e6e6e6" stroke-width="2.5" fill="none"/>
    <path d="M0 -28 C 7 -34 12 -40 14 -48 M0 -44 C 7 -50 12 -56 14 -64 M0 -60 C 7 -66 12 -72 14 -80" stroke="#e6e6e6" stroke-width="1.6" fill="none"/>
    <path d="M0 -28 C -7 -34 -12 -40 -14 -48 M0 -44 C -7 -50 -12 -56 -14 -64 M0 -60 C -7 -66 -12 -72 -14 -80" stroke="#e6e6e6" stroke-width="1.6" fill="none"/>
  </g>
  <ellipse cx="300" cy="470" rx="150" ry="26" fill="#000000" opacity="0.18"/>
  <g transform="rotate(0 300 320)">
    
        <rect x="276" y="140" width="48" height="60" rx="8" fill="#063d1d"/>
        <rect x="292" y="120" width="16" height="30" rx="6" fill="#1a5131"/>
        <rect x="250" y="198" width="100" height="240" rx="22" fill="url(#body)"/>
        <rect x="250" y="198" width="34" height="240" rx="22" fill="#74ab8b" opacity="0.35"/>
        <rect x="266" y="250" width="68" height="150" rx="10" fill="#faf6ec"/>
        <rect x="266" y="250" width="68" height="150" rx="10" fill="none" stroke="#5b9272" stroke-width="2"/>
    <g transform="translate(300 340) rotate(-12) scale(0.55)" opacity="0.9">
    <path d="M0 0 C 18 -30 18 -70 0 -96 C -18 -70 -18 -30 0 0 Z" fill="#336a4a"/>
    <path d="M0 -6 L0 -90" stroke="#1a5131" stroke-width="2.5" fill="none"/>
    <path d="M0 -28 C 7 -34 12 -40 14 -48 M0 -44 C 7 -50 12 -56 14 -64 M0 -60 C 7 -66 12 -72 14 -80" stroke="#1a5131" stroke-width="1.6" fill="none"/>
    <path d="M0 -28 C -7 -34 -12 -40 -14 -48 M0 -44 C -7 -50 -12 -56 -14 -64 M0 -60 C -7 -66 -12 -72 -14 -80" stroke="#1a5131" stroke-width="1.6" fill="none"/>
  </g>
  </g>
  <text x="300" y="536" text-anchor="middle" font-family="Georgia, serif" font-size="34" fill="#faf6ec" font-weight="700">Tulsi Drops</text>
  <text x="300" y="566" text-anchor="middle" font-family="Arial, sans-serif" font-size="17" letter-spacing="3" fill="#faf6ec" opacity="0.75">AYURVEDA</text>
</svg>
