<svg xmlns="http://www.w3.org/2000/svg" viewBox="0 0 600 600" role="img" aria-label="Chyawanprash product">
  <defs>
    <linearGradient id="bg" x1="0" y1="0" x2="1" y2="1">
      <stop offset="0" stop-color="#679e7e"/>
      <stop offset="1" stop-color="#002808"/>
    </linearGradient>
    <linearGradient id="body" x1="0" y1="0" x2="0" y2="1">
      <stop offset="0" stop-color="#659c7c"/>
      <stop offset="1" stop-color="#245b3b"/>
    </linearGradient>
    <radialGradient id="glow" cx="0.5" cy="0.42" r="0.6">
      <stop offset="0" stop-color="#ffffff" stop-opacity="0.20"/>
      <stop offset="1" stop-color="#ffffff" stop-opacity="0"/>
    </radialGradient>
  </defs>
  <rect width="600" height="600" fill="url(#bg)"/>
  <rect width="600" height="600" fill="url(#glow)"/>
  <g transform="translate(470.8502771662782 523.5136988216609) rotate(227.65405665508194) scale(0.9205446722547267)" opacity="0.08544354915872382">
    <path d="M0 0 C 18 -30 18 -70 0 -96 C -18 -70 -18 -30 0 0 Z" fill="#ffffff"/>
    <path d="M0 -6 L0 -90" stroke="#e6e6e6" stroke-width="2.5" fill="none"/>
    <path d="M0 -28 C 7 -34 12 -40 14 -48 M0 -44 C 7 -50 12 -56 14 -64 M0 -60 C 7 -66 12 -72 14 -80" stroke="#e6e6e6" stroke-width="1.6" fill="none"/>
    <path d="M0 -28 C -7 -34 -12 -40 -14 -48 M0 -44 C -7 -50 -12 -56 -14 -64 M0 -60 C -7 -66 -12 -72 -14 -80" stroke="#e6e6e6" stroke-width="1.6" fill="none"/>
  </g><g transform="translate(435.1012410759466 22.147679339231775) rotate(130.53826338170947) scale(0.6712545068335042)" opacity="0.12481259109676471">
    <path d="M0 0 C 18 -30 18 -70 0 -96 C -18 -70 -18 -30 0 0 Z" fill="#ffffff"/>
    <path d="M0 -6 L0 -90" stroke="#e6e6e6" stroke-width="2.5" fill="none"/>
    <path d="M0 -28 C 7 -34 12 -40 14 -48 M0 -44 C 7 -50 12 -56 14 -64 M0 -60 C 7 -66 12 -72 14 -80" stroke="#e6e6e6" stroke-width="1.6" fill="none"/>
    <path d="M0 -28 C -7 -34 -12 -40 -14 -48 M0 -44 C -7 -50 -12 -56 -14 -64 M0 -60 C -7 -66 -12 -72 -14 -80" stroke="#e6e6e6" stroke-width="1.6" fill="none"/>
  </g><g transform="translate(516.0336973685928 114.79067807774557) rotate(273.47052110055023) scale(0.6755442173571997)" opacity="0.11733851315329714">
    <path d="M0 0 C 18 -30 18 -70 0 -96 C -18 -70 -18 -30 0 0 Z" fill="#ffffff"/>
    <path d="M0 -6 L0 -90" stroke="#e6e6e6" stroke-width="2.5" fill="none"/>
    <path d="M0 -28 C 7 -34 12 -40 14 -48 M0 -44 C 7 -50 12 -56 14 -64 M0 -60 C 7 -66 12 -72 14 -80" stroke="#e6e6e6" stroke-width="1.6" fill="none"/>
    <path d="M0 -28 C -7 -34 -12 -40 -14 -48 M0 -44 C -7 -50 -12 -56 -14 -64 M0 -60 C -7 -66 -12 -72 -14 -80" stroke="#e6e6e6" stroke-width="1.6" fill="none"/>
  </g><g transform="translate(9.513258938450953 263.32806733591855) rotate(253.40004455922175) scale(0.7093918444166853)" opacity="0.1431106984909208">
    <path d="M0 0 C 18 -30 18 -70 0 -96 C -18 -70 -18 -30 0 0 Z" fill="#ffffff"/>
    <path d="M0 -6 L0 -90" stroke="#e6e6e6" stroke-width="2.5" fill="none"/>
    <path d="M0 -28 C 7 -34 12 -40 14 -48 M0 -44 C 7 -50 12 -56 14 -64 M0 -60 C 7 -66 12 -72 14 -80" stroke="#e6e6e6" stroke-width="1.6" fill="none"/>
    <path d="M0 -28 C -7 -34 -12 -40 -14 -48 M0 -44 C -7 -50 -12 -56 -14 -64 M0 -60 C -7 -66 -12 -72 -14 -80" stroke="#e6e6e6" stroke-width="1.6" fill="none"/>
  </g><g transform="translate(470.56853793122275 182.6600790874381) rotate(96.64213661879401) scale(1.048051846329147)" opacity="0.09138531566196369">
    <path d="M0 0 C 18 -30 18 -70 0 -96 C -18 -70 -18 -30 0 0 Z" fill="#ffffff"/>
    <path d="M0 -6 L0 -90" stroke="#e6e6e6" stroke-width="2.5" fill="none"/>
    <path d="M0 -28 C 7 -34 12 -40 14 -48 M0 -44 C 7 -50 12 -56 14 -64 M0 -60 C 7 -66 12 -72 14 -80" stroke="#e6e6e6" stroke-width="1.6" fill="none"/>
    <path d="M0 -28 C -7 -34 -12 -40 -14 -48 M0 -44 C -7 -50 -12 -56 -14 -64 M0 -60 C -7 -66 -12 -72 -14 -80" stroke="#e6e6e6" stroke-width="1.6" fill="none"/>
  </g><g transform="translate(310.83506956269736 183.34836968376692) rotate(260.4805184623601) scale(0.6965797902534623)" opacity="0.0828911542905919">
    <path d="M0 0 C 18 -30 18 -70 0 -96 C -18 -70 -18 -30 0 0 Z" fill="#ffffff"/>
    <path d="M0 -6 L0 -90" stroke="#e6e6e6" stroke-width="2.5" fill="none"/>
    <path d="M0 -28 C 7 -34 12 -40 14 -48 M0 -44 C 7 -50 12 -56 14 -64 M0 -60 C 7 -66 12 -72 14 -80" stroke="#e6e6e6" stroke-width="1.6" fill="none"/>
    <path d="M0 -28 C -7 -34 -12 -40 -14 -48 M0 -44 C -7 -50 -12 -56 -14 -64 M0 -60 C -7 -66 -12 -72 -14 -80" stroke="#e6e6e6" stroke-width="1.6" fill="none"/>
  </g><g transform="translate(547.1148672267398 269.71886170549266) rotate(225.86204062488957) scale(1.0261935594613636)" opacity="0.09950561166717933">
    <path d="M0 0 C 18 -30 18 -70 0 -96 C -18 -70 -18 -30 0 0 Z" fill="#ffffff"/>
    <path d="M0 -6 L0 -90" stroke="#e6e6e6" stroke-width="2.5" fill="none"/>
    <path d="M0 -28 C 7 -34 12 -40 14 -48 M0 -44 C 7 -50 12 -56 14 -64 M0 -60 C 7 -66 12 -72 14 -80" stroke="#e6e6e6" stroke-width="1.6" fill="none"/>
    <path d="M0 -28 C -7 -34 -12 -40 -14 -48 M0 -44 C -7 -50 -12 -56 -14 -64 M0 -60 C -7 -66 -12 -72 -14 -80" stroke="#e6e6e6" stroke-width="1.6" fill="none"/>
  </g><g transform="translate(152.22351558144368 213.39933882160082) rotate(5.710616114414584) scale(0.929352939375375)" opacity="0.11454631155102808">
    <path d="M0 0 C 18 -30 18 -70 0 -96 C -18 -70 -18 -30 0 0 Z" fill="#ffffff"/>
    <path d="M0 -6 L0 -90" stroke="#e6e6e6" stroke-width="2.5" fill="none"/>
    <path d="M0 -28 C 7 -34 12 -40 14 -48 M0 -44 C 7 -50 12 -56 14 -64 M0 -60 C 7 -66 12 -72 14 -80" stroke="#e6e6e6" stroke-width="1.6" fill="none"/>
    <path d="M0 -28 C -7 -34 -12 -40 -14 -48 M0 -44 C -7 -50 -12 -56 -14 -64 M0 -60 C -7 -66 -12 -72 -14 -80" stroke="#e6e6e6" stroke-width="1.6" fill="none"/>
  </g>
  <ellipse cx="300" cy="470" rx="150" ry="26" fill="#000000" opacity="0.18"/>
  <g transform="rotate(-18 300 320)">
    
        <rect x="236" y="150" width="128" height="40" rx="10" fill="#063d1d"/>
        <rect x="228" y="188" width="144" height="255" rx="26" fill="url(#body)"/>
        <rect x="228" y="188" width="46" height="255" rx="26" fill="#74ab8b" opacity="0.35"/>
        <rect x="250" y="245" width="100" height="150" rx="10" fill="#faf6ec"/>
        <rect x="250" y="245" width="100" height="150" rx="10" fill="none" stroke="#5b9272" stroke-width="2"/>
    <g transform="translate(300 340) rotate(-12) scale(0.55)" opacity="0.9">
    <path d="M0 0 C 18 -30 18 -70 0 -96 C -18 -70 -18 -30 0 0 Z" fill="#336a4a"/>
    <path d="M0 -6 L0 -90" stroke="#1a5131" stroke-width="2.5" fill="none"/>
    <path d="M0 -28 C 7 -34 12 -40 14 -48 M0 -44 C 7 -50 12 -56 14 -64 M0 -60 C 7 -66 12 -72 14 -80" stroke="#1a5131" stroke-width="1.6" fill="none"/>
    <path d="M0 -28 C -7 -34 -12 -40 -14 -48 M0 -44 C -7 -50 -12 -56 -14 -64 M0 -60 C -7 -66 -12 -72 -14 -80" stroke="#1a5131" stroke-width="1.6" fill="none"/>
  </g>
  </g>
  <text x="300" y="536" text-anchor="middle" font-family="Georgia, serif" font-size="34" fill="#faf6ec" font-weight="700">Chyawanprash</text>
  <text x="300" y="566" text-anchor="middle" font-family="Arial, sans-serif" font-size="17" letter-spacing="3" fill="#faf6ec" opacity="0.75">AYURVEDA</text>
</svg>
